<svg aria-hidden="true" style="position: absolute; width: 0; height: 0; overflow: hidden;" version="1.1" xmlns="http://www.w3.org/2000/svg" xmlns:xlink="http://www.w3.org/1999/xlink">
<defs>
<symbol id="icon-burger-menu" viewBox="0 0 69 32">
<path fill="#fff" d="M0 0h68.571v4.571h-68.571zM0 13.714h68.571v4.571h-68.571zM0 27.429h68.571v4.571h-68.571z"></path>
</symbol>
<symbol id="icon-geekle" viewBox="0 0 153 32">
<path fill="#fff" d="M0 15.508v-4.571l14.69-6.855v5.42l-7.934 3.589 7.934 3.594v5.679l-14.69-6.855zM152.615 10.937v4.571l-14.69 6.855v-5.42l7.934-3.591-7.934-3.591v-5.679l14.69 6.855z"></path>
<path fill="#73f9bc"  d="M34.375 31.34c-5.878 0-9.142-1.438-9.142-4.049 0-1.438 1.177-2.545 3.136-2.939-1.339-0.751-2.156-1.925-2.156-3.2 0-1.698 1.142-2.969 3.266-3.719-1.522-0.998-2.513-2.696-2.513-4.626 0-0.015 0-0.031 0-0.046v0.002c-0-0.025-0.001-0.055-0.001-0.085 0-1.716 0.814-3.243 2.078-4.213l0.013-0.009c1.403-1.145 3.232-1.733 5.45-1.733 2.351 0 4.342 0.687 5.748 1.994 0.913-1.177 2.284-1.73 4.276-1.73v4.177c-0.084-0.003-0.184-0.005-0.283-0.005-0.842 0-1.655 0.121-2.424 0.347l0.061-0.015c0.098 0.418 0.155 0.844 0.162 1.273 0.001 0.032 0.001 0.070 0.001 0.108 0 1.72-0.814 3.25-2.079 4.225l-0.012 0.009c-1.403 1.142-3.2 1.698-5.452 1.698-0.836-0.006-1.647-0.101-2.427-0.275l0.077 0.014c-0.783 0.229-1.206 0.522-1.206 0.945 0 0.62 0.391 0.817 1.337 0.817h6.432c3.754 0 5.878 1.73 5.878 4.702 0 3.948-3.852 6.334-10.218 6.334zM34.439 27.781c3.495 0 5.159-0.554 5.159-1.698 0-0.62-0.556-0.98-1.47-0.98h-4.832c-2.188 0-3.102 0.359-3.102 1.275 0 0.948 1.371 1.403 4.244 1.403zM34.538 10.316c-1.534 0-2.417 0.881-2.417 2.449 0 1.534 0.948 2.481 2.417 2.481s2.383-0.916 2.383-2.481c0-1.568-0.849-2.452-2.383-2.452zM48.017 21.873c-1.566-1.6-2.351-3.722-2.351-6.4 0-2.545 0.817-4.635 2.417-6.267 1.6-1.666 3.658-2.484 6.169-2.484 2.319 0 4.212 0.719 5.617 2.188 1.435 1.47 2.154 3.397 2.154 5.844 0 0.783-0.064 1.502-0.098 2.055h-10.87c0.359 2.122 1.502 3.136 3.82 3.136 1.555-0.061 2.944-0.724 3.949-1.761l0.001-0.001 2.873 3.2c-1.73 1.957-4.049 2.838-7.345 2.838-2.646 0-4.768-0.783-6.336-2.348zM51.153 13.482h5.516c-0.032-1.826-0.945-2.774-2.511-2.774-1.568 0-2.614 0.948-3.006 2.774zM66.496 21.873c-1.568-1.6-2.351-3.722-2.351-6.4 0-2.545 0.815-4.635 2.415-6.267 1.6-1.666 3.658-2.484 6.171-2.484 2.316 0 4.209 0.719 5.615 2.188 1.438 1.47 2.156 3.397 2.156 5.844 0 0.783-0.066 1.502-0.098 2.055h-10.873c0.359 2.122 1.502 3.136 3.82 3.136 1.555-0.061 2.944-0.724 3.949-1.761l0.001-0.001 2.873 3.2c-1.73 1.957-4.049 2.838-7.345 2.838-2.644 0-4.766-0.783-6.334-2.348zM69.63 13.482h5.519c-0.032-1.826-0.948-2.774-2.513-2.774-1.568 0-2.614 0.948-3.003 2.774zM94.146 13.679l6.562 10.151h-6.53l-3.983-6.526-1.206 1.273v5.255h-5.487v-23.833h5.487v12.374l4.894-5.26h6.594l-6.334 6.562zM102.503 23.83v-23.83h5.484v23.83h-5.484zM113.243 21.873c-1.568-1.6-2.351-3.722-2.351-6.4 0-2.545 0.815-4.635 2.415-6.267 1.6-1.666 3.658-2.484 6.171-2.484 2.319 0 4.209 0.719 5.615 2.188 1.438 1.47 2.154 3.397 2.154 5.844 0 0.783-0.064 1.502-0.098 2.055h-10.87c0.359 2.122 1.502 3.136 3.82 3.136 1.555-0.061 2.944-0.724 3.949-1.761l0.001-0.001 2.873 3.2c-1.73 1.957-4.049 2.838-7.345 2.838-2.646 0-4.766-0.783-6.334-2.348zM116.377 13.482h5.519c-0.034-1.826-0.948-2.774-2.516-2.774-1.566 0-2.609 0.948-3.003 2.774z"></path>
</symbol>
</defs>
</svg>
